<svg t="1646751253511" class="icon" viewBox="0 0 1024 1024" version="1.1" xmlns="http://www.w3.org/2000/svg" p-id="13429" width="200" height="200">
  <path d="M800 0h-576C102.4 0 0 102.4 0 224v576C0 921.6 102.4 1024 224 1024h576c121.6 0 224-102.4 224-224v-576C1024 102.4 921.6 0 800 0z m-25.6 460.8L640 576l6.4 19.2c-96 0-160-6.4-160-6.4L640 473.6c-128-25.6-300.8 6.4-288 6.4 198.4 6.4 204.8 19.2 204.8 19.2L396.8 614.4c217.6 12.8 281.6-12.8 281.6-12.8s-12.8 12.8-32 19.2l32 140.8c0 6.4 0 6.4-6.4 6.4h-6.4-6.4L512 672 358.4 768h-6.4l-6.4-6.4L384 576 249.6 460.8s-6.4-6.4 0-6.4c-6.4-6.4 0-6.4 0-6.4l179.2-12.8 70.4-166.4c6.4-12.8 6.4-12.8 12.8-12.8s6.4 0 6.4 6.4l70.4 166.4 185.6 19.2c6.4 0 6.4 0 6.4 6.4 0 0 0 6.4-6.4 6.4z" fill="#1296db" p-id="13430"></path>
</svg>